<svg fill='white' id="Capa_1" enable-background="new 0 0 512 512" height="512" viewBox="0 0 512 512" width="512" xmlns="http://www.w3.org/2000/svg"><g><path d="m56.425 260.584c-5.522 0-10 4.477-10 10v.028c0 5.523 4.478 9.986 10 9.986s10-4.491 10-10.014-4.478-10-10-10z"/><path d="m56.425 400.188c-5.522 0-10 4.477-10 10v.057c0 5.523 4.478 9.972 10 9.972s10-4.505 10-10.028-4.478-10.001-10-10.001z"/><path d="m455.547 260.584c-5.522 0-10 4.477-10 10v.028c0 5.523 4.478 9.986 10 9.986s10-4.491 10-10.014-4.478-10-10-10z"/><path d="m455.547 400.188c-5.522 0-10 4.477-10 10v.057c0 5.523 4.478 9.972 10 9.972s10-4.505 10-10.028-4.478-10.001-10-10.001z"/><path d="m506.5 298.165v-55.105c0-15.251-12.412-27.66-27.669-27.66h-25.52c-3.791-10.97-8.068-21.364-12.234-31.465-11.16-27.056-21.702-52.611-21.702-85.921v-40.568c6.401-3.536 10.749-10.35 10.749-18.164v-18.539c0-11.438-9.308-20.743-20.749-20.743h-76.999c-11.441 0-20.749 9.305-20.749 20.743v18.538c0 7.814 4.348 14.628 10.749 18.164v40.569c0 33.31-10.542 58.865-21.702 85.921-4.167 10.101-8.443 20.496-12.234 31.465h-64.904c-3.791-10.988-8.07-21.398-12.24-31.515-11.145-27.042-21.672-52.583-21.672-85.872v-40.567c6.401-3.536 10.749-10.35 10.749-18.164v-18.539c0-11.438-9.308-20.743-20.749-20.743h-76.999c-11.441 0-20.749 9.305-20.749 20.743v18.538c0 7.814 4.348 14.628 10.749 18.164v40.569c0 33.31-10.542 58.865-21.702 85.921-4.166 10.101-8.443 20.496-12.234 31.465h-25.548c-15.242 0-27.641 12.409-27.641 27.66v55.104c0 11.711 7.329 21.737 17.641 25.752v32.995c-10.312 4.016-17.641 14.042-17.641 25.753v55.104c0 11.723 7.329 21.759 17.641 25.779v38.453c0 5.523 4.478 10 10 10h445.69c5.522 0 10-4.477 10-10v-38.449c10.327-4.017 17.669-14.056 17.669-25.783v-55.104c0-11.715-7.342-21.743-17.669-25.756v-32.987c10.327-4.013 17.669-14.042 17.669-25.756zm-174.873-277.422c0-.375.371-.743.749-.743h76.999c.378 0 .749.368.749.743v18.538c0 .375-.371.743-.749.743h-76.999c-.378 0-.749-.368-.749-.743zm67.942 85.356h-57.387c.123-2.652.194-5.342.194-8.084v-37.99h56.999v37.99c0 2.742.071 5.432.194 8.084zm-80.407 85.463c8.373-20.296 16.948-41.104 20.926-65.463h61.575c3.978 24.359 12.553 45.167 20.926 65.463 3.201 7.76 6.473 15.693 9.488 23.838h-122.403c3.015-8.145 6.287-16.078 9.488-23.838zm-217.286-170.819c0-.389.357-.743.749-.743h76.999c.378 0 .749.368.749.743v18.538c0 .375-.371.743-.749.743h-76.999c-.392 0-.749-.354-.749-.743zm67.942 85.356h-57.387c.123-2.652.194-5.342.194-8.084v-37.99h56.999v37.99c0 2.742.071 5.432.194 8.084zm-80.407 85.463c8.373-20.296 16.948-41.104 20.926-65.463h61.575c3.974 24.337 12.535 45.128 20.894 65.408 3.205 7.778 6.482 15.729 9.5 23.894h-122.383c3.015-8.146 6.287-16.079 9.488-23.839zm379.42 300.438h-425.69v-26.572h425.69zm17.669-54.232c0 4.152-3.512 7.66-7.669 7.66h-445.69c-4.142 0-7.641-3.508-7.641-7.66v-55.104c0-4.136 3.499-7.631 7.641-7.631h445.69c4.229 0 7.669 3.423 7.669 7.631zm0-139.603c0 4.208-3.44 7.631-7.669 7.631h-172.405c-5.522 0-10 4.477-10 10s4.478 10 10 10h162.405v29.237h-425.69v-29.237h173.466c5.522 0 10-4.477 10-10s-4.478-10-10-10h-183.466c-4.142 0-7.641-3.495-7.641-7.631v-55.105c0-4.224 3.428-7.66 7.641-7.66h32.757 150.426 79.325 150.454 32.729c4.229 0 7.669 3.436 7.669 7.66v55.105z"/><path d="m261.53 305.796c-5.522 0-10 4.477-10 10s4.478 10 10 10h.057c5.522 0 9.972-4.477 9.972-10s-4.506-10-10.029-10z"/></g></svg>