<svg id="Capa_1" fill='white' enable-background="new 0 0 512 512" height="512" viewBox="0 0 512 512" width="512" xmlns="http://www.w3.org/2000/svg"><g><path d="m492.3 274.74s-220.646-23.439-236.37 186.435c-15.723-209.874-236.369-186.435-236.369-186.435s-25.297 237.26 236.369 237.26c263.667 0 236.37-237.26 236.37-237.26z"/><path d="m249.376 343.159c2.288 3.507 4.473 7.098 6.553 10.773 2.082-3.677 4.268-7.27 6.557-10.779 17.901-27.438 42.071-49.701 71.84-66.172 40.66-22.496 84.505-30.008 115.751-32.209-17.779-91.25-95.25-153.847-95.25-153.847s-96.68 78.106-98.827 187.012c-2.147-108.906-98.827-187.012-98.827-187.012s-77.477 62.602-95.252 153.857c31.238 2.215 75.017 9.74 115.618 32.206 29.768 16.47 53.937 38.734 71.837 66.171z"/><path d="m256 167.088c22.438-42.501 51.915-73.665 68.131-88.979-31.788-48.686-68.201-78.109-68.201-78.109s-36.372 29.39-68.148 78.027c16.198 15.285 45.74 46.484 68.218 89.061z"/></g></svg>